{"title":"That.Demon.Within.2014.480.BRRip.XviD.AC3-N3kr4","uid":10357090,"size":2469057133,"categoryP":"video","categoryS":"hd___movies","magnet":"?xt=urn:btih:15ae4e8eeb60697ebcbf3f94f0069897d13df527&amp;dn=That.Demon.Within.2014.480.BRRip.XviD.AC3-N3kr4&amp;tr=udp%3A%2F%2Ftracker.openbittorrent.com%3A80&amp;tr=udp%3A%2F%2Fopen.demonii.com%3A1337&amp;tr=udp%3A%2F%2Ftracker.coppersurfer.tk%3A6969&amp;tr=udp%3A%2F%2Fexodus.desync.com%3A6969","seeders":1,"leechers":0,"uploader":"Falcon.G13","files":2,"time":1402758634,"description":" &lt;a href=&quot;http://www.imdb.com/title/tt3511542/combined&quot; rel=&quot;nofollow&quot; target=&quot;_NEW&quot;&gt;http://www.imdb.com/title/tt3511542/combined&lt;/a&gt;\n &lt;a href=&quot;\nhttp://i.imgur.com/5apSPhF.jpg&quot; rel=&quot;nofollow&quot; target=&quot;_NEW&quot;&gt;\nhttp://i.imgur.com/5apSPhF.jpg&lt;/a&gt; &lt;a href=&quot;\nhttp://i.imgur.com/QmXXnbg.jpg&quot; rel=&quot;nofollow&quot; target=&quot;_NEW&quot;&gt;\nhttp://i.imgur.com/QmXXnbg.jpg&lt;/a&gt; &lt;a href=&quot;\nhttp://i.imgur.com/KexJcp5.jpg&quot; rel=&quot;nofollow&quot; target=&quot;_NEW&quot;&gt;\nhttp://i.imgur.com/KexJcp5.jpg&lt;/a&gt; &lt;a href=&quot;\nhttp://i.imgur.com/7th3YfK.jpg&quot; rel=&quot;nofollow&quot; target=&quot;_NEW&quot;&gt;\nhttp://i.imgur.com/7th3YfK.jpg&lt;/a&gt; &lt;a href=&quot;\nhttp://i.imgur.com/wiDQ10w.jpg&quot; rel=&quot;nofollow&quot; target=&quot;_NEW&quot;&gt;\nhttp://i.imgur.com/wiDQ10w.jpg&lt;/a&gt; &lt;a href=&quot;\nhttp://i.imgur.com/HVfnTaa.jpg&quot; rel=&quot;nofollow&quot; target=&quot;_NEW&quot;&gt;\nhttp://i.imgur.com/HVfnTaa.jpg&lt;/a&gt; &lt;a href=&quot;\nhttp://i.imgur.com/mQVqCEg.jpg&quot; rel=&quot;nofollow&quot; target=&quot;_NEW&quot;&gt;\nhttp://i.imgur.com/mQVqCEg.jpg&lt;/a&gt; &lt;a href=&quot;\nhttp://i.imgur.com/tw5Zt4Q.jpg&quot; rel=&quot;nofollow&quot; target=&quot;_NEW&quot;&gt;\nhttp://i.imgur.com/tw5Zt4Q.jpg&lt;/a&gt;\n\nGeneral\nComplete name : That.Demon.Within.2014.480.BRRip.XviD.AC3-N3kr4.avi\nFormat : AVI\nFormat/Info : Audio Video Interleave\nFormat profile : OpenDML\nFile size : 2.30 GiB\nDuration : 1h 51mn\nOverall bit rate : 2 958 Kbps\nWriting application : Lavf55.7.100\n\nVideo\nID : 0\nFormat : MPEG-4 Visual\nFormat profile : Advanced Simple@L1\nFormat settings, BVOP : No\nFormat settings, QPel : No\nFormat settings, GMC : No warppoints\nFormat settings, Matrix : Default (H.263)\nCodec ID : XVID\nCodec ID/Hint : XviD\nDuration : 1h 51mn\nBit rate : 1 662 Kbps\nWidth : 720 pixels\nHeight : 304 pixels\nDisplay aspect ratio : 2.35:1\nFrame rate : 24.000 fps\nColor space : YUV\nChroma subsampling : 4:2:0\nBit depth : 8 bits\nScan type : Progressive\nCompression mode : Lossy\nBits/(Pixel*Frame) : 0.316\nStream size : 1.29 GiB (56%)\nWriting library : Lavc55.12.100\n\nAudio #1\nID : 1\nFormat : AC-3\nFormat/Info : Audio Coding 3\nMode extension : CM (complete main)\nFormat settings, Endianness : Big\nCodec ID : 2000\nDuration : 1h 51mn\nBit rate mode : Constant\nBit rate : 640 Kbps\nChannel(s) : 6 channels\nChannel positions : Front: L C R, Side: L R, LFE\nSampling rate : 48.0 KHz\nBit depth : 16 bits\nCompression mode : Lossy\nStream size : 509 MiB (22%)\nAlignment : Aligned on interleaves\nInterleave, duration : 32 ms (0.77 video frame)\nInterleave, preload duration : 32 ms\n\nAudio #2\nID : 2\nFormat : AC-3\nFormat/Info : Audio Coding 3\nMode extension : CM (complete main)\nFormat settings, Endianness : Big\nCodec ID : 2000\nDuration : 1h 51mn\nBit rate mode : Constant\nBit rate : 640 Kbps\nChannel(s) : 6 channels\nChannel positions : Front: L C R, Side: L R, LFE\nSampling rate : 48.0 KHz\nBit depth : 16 bits\nCompression mode : Lossy\nStream size : 509 MiB (22%)\nAlignment : Aligned on interleaves\nInterleave, duration : 32 ms (0.77 video frame)\nInterleave, preload duration : 32 ms\n","torrent":{"xt":"urn:btih:15ae4e8eeb60697ebcbf3f94f0069897d13df527","amp;dn":"That.Demon.Within.2014.480.BRRip.XviD.AC3-N3kr4","amp;tr":["udp%3A%2F%2Ftracker.openbittorrent.com%3A80","udp%3A%2F%2Fopen.demonii.com%3A1337","udp%3A%2F%2Ftracker.coppersurfer.tk%3A6969","udp%3A%2F%2Fexodus.desync.com%3A6969"],"infoHash":"15ae4e8eeb60697ebcbf3f94f0069897d13df527","infoHashBuffer":{"type":"Buffer","data":[21,174,78,142,235,96,105,126,188,191,63,148,240,6,152,151,209,61,245,39]},"announce":[],"urlList":[]}}